<svg width="152" height="23" viewBox="0 0 152 23" fill="none" xmlns="http://www.w3.org/2000/svg">
<path d="M0.31 22V0.999999H8.17C10.17 0.999999 11.95 1.42 13.51 2.26C15.07 3.09 16.295 4.29 17.185 5.86C18.075 7.42 18.52 9.3 18.52 11.5C18.52 13.7 18.075 15.585 17.185 17.155C16.295 18.715 15.07 19.915 13.51 20.755C11.95 21.585 10.17 22 8.17 22H0.31ZM4.15 18.58H8.17C9.53 18.58 10.665 18.295 11.575 17.725C12.485 17.155 13.17 16.34 13.63 15.28C14.09 14.22 14.32 12.96 14.32 11.5C14.32 10.04 14.09 8.78 13.63 7.72C13.17 6.66 12.485 5.845 11.575 5.275C10.665 4.705 9.53 4.42 8.17 4.42H4.15V18.58ZM21.3768 22V7.18H24.1368L24.3618 9.25C24.9618 8.53 25.6018 7.955 26.2818 7.525C26.9718 7.095 27.7168 6.88 28.5168 6.88C28.7568 6.88 28.9818 6.905 29.1918 6.955L28.9218 10.21C28.7518 10.17 28.5768 10.14 28.3968 10.12C28.2268 10.1 28.0468 10.09 27.8568 10.09C27.1368 10.09 26.4768 10.255 25.8768 10.585C25.2868 10.905 24.8668 11.27 24.6168 11.68V22H21.3768ZM37.8625 22.3C36.0925 22.3 34.6125 21.945 33.4225 21.235C32.2325 20.515 31.3325 19.565 30.7225 18.385C30.1225 17.195 29.8225 15.895 29.8225 14.485C29.8225 13.115 30.1025 11.855 30.6625 10.705C31.2325 9.555 32.0575 8.635 33.1375 7.945C34.2275 7.245 35.5425 6.895 37.0825 6.895C38.3925 6.895 39.5275 7.16 40.4875 7.69C41.4475 8.22 42.1825 8.96 42.6925 9.91C43.2125 10.86 43.4725 11.97 43.4725 13.24C43.4725 13.5 43.4575 13.77 43.4275 14.05C43.4075 14.33 43.3675 14.625 43.3075 14.935H33.0625C33.1925 16.105 33.5025 17.035 33.9925 17.725C34.4825 18.405 35.0925 18.89 35.8225 19.18C36.5525 19.47 37.3425 19.615 38.1925 19.615C38.9525 19.615 39.7025 19.53 40.4425 19.36C41.1825 19.18 41.8775 18.925 42.5275 18.595L42.8125 21.16C42.2425 21.43 41.5425 21.69 40.7125 21.94C39.8825 22.18 38.9325 22.3 37.8625 22.3ZM33.2425 12.79H40.2625C40.2625 12.2 40.1525 11.665 39.9325 11.185C39.7125 10.695 39.3625 10.305 38.8825 10.015C38.4125 9.725 37.8025 9.58 37.0525 9.58C35.9525 9.58 35.0975 9.87 34.4875 10.45C33.8875 11.03 33.4725 11.81 33.2425 12.79ZM49.4777 22.3C48.6177 22.3 47.8527 22.12 47.1827 21.76C46.5127 21.39 45.9827 20.88 45.5927 20.23C45.2127 19.58 45.0227 18.815 45.0227 17.935C45.0227 17.095 45.2127 16.38 45.5927 15.79C45.9727 15.19 46.4777 14.69 47.1077 14.29C47.7377 13.89 48.4277 13.575 49.1777 13.345C49.9377 13.105 50.7077 12.93 51.4877 12.82C52.2677 12.71 52.9927 12.65 53.6627 12.64C53.6527 11.47 53.4027 10.68 52.9127 10.27C52.4227 9.85 51.6777 9.64 50.6777 9.64C50.0777 9.64 49.4627 9.73 48.8327 9.91C48.2027 10.08 47.4927 10.405 46.7027 10.885L46.3427 8.335C47.0627 7.895 47.8677 7.545 48.7577 7.285C49.6477 7.025 50.5677 6.895 51.5177 6.895C52.7077 6.895 53.6927 7.105 54.4727 7.525C55.2527 7.945 55.8377 8.64 56.2277 9.61C56.6177 10.58 56.8127 11.88 56.8127 13.51V16.96C56.8127 17.68 56.8427 18.245 56.9027 18.655C56.9727 19.055 57.1177 19.34 57.3377 19.51C57.5577 19.68 57.8927 19.765 58.3427 19.765H58.7027L58.3127 22.3H57.6227C56.8827 22.3 56.2827 22.22 55.8227 22.06C55.3727 21.9 55.0077 21.675 54.7277 21.385C54.4477 21.085 54.2127 20.73 54.0227 20.32C53.4927 20.92 52.8327 21.4 52.0427 21.76C51.2627 22.12 50.4077 22.3 49.4777 22.3ZM50.4377 19.84C50.9977 19.84 51.5727 19.7 52.1627 19.42C52.7627 19.14 53.2677 18.75 53.6777 18.25V14.77C52.5577 14.82 51.5927 14.955 50.7827 15.175C49.9827 15.385 49.3627 15.705 48.9227 16.135C48.4927 16.565 48.2777 17.115 48.2777 17.785C48.2777 18.505 48.4677 19.03 48.8477 19.36C49.2277 19.68 49.7577 19.84 50.4377 19.84ZM60.7518 22V7.18H63.3168L63.7368 9.73L62.9118 9.175C63.6818 8.415 64.4868 7.845 65.3268 7.465C66.1668 7.085 67.0868 6.895 68.0868 6.895C68.8468 6.895 69.5468 7.015 70.1868 7.255C70.8268 7.485 71.3918 7.86 71.8818 8.38C72.3818 8.9 72.7818 9.59 73.0818 10.45L72.2718 10.165C72.7318 9.145 73.4168 8.345 74.3268 7.765C75.2468 7.185 76.3968 6.895 77.7768 6.895C79.0668 6.895 80.1368 7.15 80.9868 7.66C81.8468 8.16 82.4868 8.9 82.9068 9.88C83.3268 10.85 83.5368 12.045 83.5368 13.465V22H80.4018V13.6C80.4018 12.21 80.1518 11.195 79.6518 10.555C79.1618 9.905 78.3518 9.58 77.2218 9.58C76.5118 9.58 75.9268 9.695 75.4668 9.925C75.0068 10.145 74.6468 10.45 74.3868 10.84C74.1368 11.22 73.9618 11.645 73.8618 12.115C73.7618 12.585 73.7118 13.065 73.7118 13.555V22H70.5768V13.915C70.5768 12.825 70.4518 11.965 70.2018 11.335C69.9518 10.705 69.5868 10.255 69.1068 9.985C68.6268 9.715 68.0468 9.58 67.3668 9.58C66.4268 9.58 65.6118 9.79 64.9218 10.21C64.2418 10.63 63.7368 11.26 63.4068 12.1L63.8868 10.405V22H60.7518Z" fill="#060317"/>
<path d="M91.9982 22.42C90.5582 22.42 89.2832 22.265 88.1732 21.955C87.0632 21.645 86.1082 21.29 85.3082 20.89L86.5082 16.51C87.1382 17.06 87.9532 17.57 88.9532 18.04C89.9532 18.5 91.1182 18.73 92.4482 18.73C93.2382 18.73 93.9232 18.65 94.5032 18.49C95.0832 18.32 95.5282 18.05 95.8382 17.68C96.1582 17.3 96.3182 16.8 96.3182 16.18C96.3182 15.58 96.1732 15.085 95.8832 14.695C95.6032 14.295 95.1682 13.945 94.5782 13.645C93.9882 13.335 93.2382 13.02 92.3282 12.7C91.5382 12.42 90.8332 12.125 90.2132 11.815C89.6032 11.495 89.0882 11.125 88.6682 10.705C88.2582 10.285 87.9432 9.785 87.7232 9.205C87.5132 8.625 87.4082 7.93 87.4082 7.12C87.4082 6.17 87.5982 5.3 87.9782 4.51C88.3582 3.71 88.8982 3.02 89.5982 2.44C90.3082 1.85 91.1582 1.395 92.1482 1.075C93.1382 0.744999 94.2382 0.579999 95.4482 0.579999C96.9482 0.579999 98.2732 0.759999 99.4232 1.12C100.573 1.48 101.448 1.84 102.048 2.2L100.968 6.13C99.9382 5.51 98.9782 5.04 98.0882 4.72C97.1982 4.4 96.2182 4.24 95.1482 4.24C94.4582 4.24 93.8282 4.32 93.2582 4.48C92.6882 4.64 92.2332 4.9 91.8932 5.26C91.5632 5.62 91.3982 6.1 91.3982 6.7C91.3982 7.46 91.7282 8.03 92.3882 8.41C93.0482 8.78 93.8882 9.14 94.9082 9.49C95.6082 9.73 96.2982 9.995 96.9782 10.285C97.6682 10.565 98.2932 10.92 98.8532 11.35C99.4232 11.78 99.8782 12.32 100.218 12.97C100.558 13.61 100.728 14.41 100.728 15.37C100.728 16.19 100.578 17.02 100.278 17.86C99.9882 18.69 99.5032 19.45 98.8232 20.14C98.1532 20.82 97.2582 21.37 96.1382 21.79C95.0182 22.21 93.6382 22.42 91.9982 22.42ZM106.785 22.3C105.665 22.3 104.87 22.01 104.4 21.43C103.93 20.84 103.695 20.16 103.695 19.39C103.695 19.33 103.705 19.22 103.725 19.06C103.745 18.9 103.795 18.565 103.875 18.055C103.965 17.535 104.105 16.725 104.295 15.625C104.485 14.515 104.75 13 105.09 11.08C105.43 9.15 105.87 6.685 106.41 3.685L109.605 3.355L106.98 18.67C106.98 19.18 107.13 19.49 107.43 19.6C107.73 19.71 108.265 19.765 109.035 19.765H109.905L109.17 22.3H106.785ZM103.245 9.685L103.965 7.18H112.155L111.69 9.685H103.245ZM117.461 22.3C116.401 22.3 115.481 22.045 114.701 21.535C113.931 21.025 113.336 20.32 112.916 19.42C112.496 18.51 112.286 17.46 112.286 16.27C112.286 15.09 112.476 13.945 112.856 12.835C113.246 11.715 113.796 10.71 114.506 9.82C115.216 8.92 116.061 8.21 117.041 7.69C118.031 7.16 119.126 6.895 120.326 6.895C120.906 6.895 121.446 6.975 121.946 7.135C122.456 7.295 122.911 7.565 123.311 7.945C123.721 8.325 124.056 8.845 124.316 9.505L123.251 9.895L124.271 7.18H127.031L125.276 17.515C125.196 17.985 125.156 18.37 125.156 18.67C125.156 19.13 125.261 19.43 125.471 19.57C125.681 19.7 126.056 19.765 126.596 19.765L125.801 22.3C125.111 22.3 124.531 22.27 124.061 22.21C123.601 22.15 123.216 22.015 122.906 21.805C122.606 21.585 122.356 21.255 122.156 20.815C121.966 20.375 121.801 19.775 121.661 19.015L122.576 19.63C122.186 20.13 121.741 20.585 121.241 20.995C120.741 21.395 120.176 21.715 119.546 21.955C118.926 22.185 118.231 22.3 117.461 22.3ZM118.511 19.615C119.191 19.615 119.801 19.455 120.341 19.135C120.891 18.815 121.361 18.37 121.751 17.8C122.141 17.23 122.436 16.58 122.636 15.85C122.846 15.11 122.951 14.325 122.951 13.495C122.951 12.185 122.691 11.205 122.171 10.555C121.661 9.905 120.951 9.58 120.041 9.58C119.171 9.58 118.396 9.865 117.716 10.435C117.046 10.995 116.516 11.745 116.126 12.685C115.746 13.615 115.556 14.63 115.556 15.73C115.556 16.84 115.786 17.765 116.246 18.505C116.716 19.245 117.471 19.615 118.511 19.615ZM132.918 22.3C131.798 22.3 131.003 22.01 130.533 21.43C130.063 20.84 129.828 20.16 129.828 19.39C129.828 19.33 129.838 19.22 129.858 19.06C129.878 18.9 129.928 18.565 130.008 18.055C130.098 17.535 130.238 16.725 130.428 15.625C130.618 14.515 130.883 13 131.223 11.08C131.563 9.15 132.003 6.685 132.543 3.685L135.738 3.355L133.113 18.67C133.113 19.18 133.263 19.49 133.563 19.6C133.863 19.71 134.398 19.765 135.168 19.765H136.038L135.303 22.3H132.918ZM129.378 9.685L130.098 7.18H138.288L137.823 9.685H129.378ZM141.539 13.375C141.929 13.505 142.294 13.6 142.634 13.66C142.984 13.72 143.389 13.75 143.849 13.75C145.059 13.75 145.999 13.62 146.669 13.36C147.339 13.09 147.804 12.755 148.064 12.355C148.334 11.955 148.469 11.56 148.469 11.17C148.469 10.75 148.359 10.425 148.139 10.195C147.929 9.965 147.664 9.805 147.344 9.715C147.024 9.625 146.714 9.58 146.414 9.58C145.684 9.58 145.019 9.775 144.419 10.165C143.829 10.555 143.319 11.09 142.889 11.77C142.459 12.44 142.124 13.205 141.884 14.065L141.764 14.935C141.704 16.145 141.834 17.09 142.154 17.77C142.474 18.45 142.924 18.93 143.504 19.21C144.084 19.48 144.719 19.615 145.409 19.615C146.129 19.615 146.869 19.525 147.629 19.345C148.399 19.165 149.104 18.915 149.744 18.595L149.489 21.16C148.909 21.49 148.209 21.765 147.389 21.985C146.579 22.195 145.679 22.3 144.689 22.3C143.259 22.3 142.079 22.015 141.149 21.445C140.229 20.875 139.544 20.11 139.094 19.15C138.644 18.18 138.419 17.095 138.419 15.895C138.419 14.745 138.614 13.635 139.004 12.565C139.394 11.485 139.949 10.52 140.669 9.67C141.399 8.82 142.264 8.145 143.264 7.645C144.274 7.145 145.394 6.895 146.624 6.895C148.124 6.895 149.264 7.265 150.044 8.005C150.834 8.745 151.229 9.71 151.229 10.9C151.229 11.6 151.079 12.255 150.779 12.865C150.489 13.465 150.049 13.99 149.459 14.44C148.879 14.88 148.154 15.225 147.284 15.475C146.414 15.715 145.399 15.835 144.239 15.835C143.669 15.835 143.119 15.805 142.589 15.745C142.059 15.675 141.634 15.59 141.314 15.49L141.539 13.375Z" fill="#FF8901"/>
</svg>
