<svg width="80" height="16" viewBox="0 0 80 16" fill="none" xmlns="http://www.w3.org/2000/svg">
<path d="M7.36863 1.49518C7.51656 1.0309 8.1735 1.0309 8.32143 1.49518L9.49541 5.17966C9.56149 5.38705 9.75414 5.52786 9.97181 5.52786H13.7913C14.2733 5.52786 14.4763 6.14268 14.089 6.42961L10.9822 8.73141C10.8104 8.85872 10.7385 9.0812 10.8035 9.28496L11.9862 12.9968C12.1335 13.4592 11.602 13.8393 11.2121 13.5504L8.14269 11.2763C7.96587 11.1453 7.72419 11.1453 7.54738 11.2763L4.47797 13.5504C4.08804 13.8393 3.55658 13.4592 3.70391 12.9968L4.88661 9.28496C4.95153 9.0812 4.87968 8.85872 4.70786 8.73141L1.60107 6.42961C1.2138 6.14268 1.41674 5.52786 1.89873 5.52786H5.71826C5.93592 5.52786 6.12858 5.38705 6.19466 5.17966L7.36863 1.49518Z" fill="#FF8901"/>
<path d="M23.5754 1.49518C23.7233 1.0309 24.3803 1.0309 24.5282 1.49518L25.7022 5.17966C25.7683 5.38705 25.9609 5.52786 26.1786 5.52786H29.9981C30.4801 5.52786 30.6831 6.14268 30.2958 6.42961L27.189 8.73141C27.0172 8.85872 26.9453 9.0812 27.0102 9.28496L28.1929 12.9968C28.3403 13.4592 27.8088 13.8393 27.4189 13.5504L24.3495 11.2763C24.1727 11.1453 23.931 11.1453 23.7542 11.2763L20.6848 13.5504C20.2948 13.8393 19.7634 13.4592 19.9107 12.9968L21.0934 9.28496C21.1583 9.0812 21.0865 8.85872 20.9146 8.73141L17.8079 6.42961C17.4206 6.14268 17.6235 5.52786 18.1055 5.52786H21.925C22.1427 5.52786 22.3354 5.38705 22.4014 5.17966L23.5754 1.49518Z" fill="#FF8901"/>
<path d="M39.6094 1.49518C39.7574 1.0309 40.4143 1.0309 40.5622 1.49518L41.7362 5.17966C41.8023 5.38705 41.995 5.52786 42.2126 5.52786H46.0322C46.5141 5.52786 46.7171 6.14268 46.3298 6.42961L43.223 8.73141C43.0512 8.85872 42.9794 9.0812 43.0443 9.28496L44.227 12.9968C44.3743 13.4592 43.8428 13.8393 43.4529 13.5504L40.3835 11.2763C40.2067 11.1453 39.965 11.1453 39.7882 11.2763L36.7188 13.5504C36.3289 13.8393 35.7974 13.4592 35.9447 12.9968L37.1274 9.28496C37.1923 9.0812 37.1205 8.85872 36.9487 8.73141L33.8419 6.42961C33.4546 6.14268 33.6576 5.52786 34.1395 5.52786H37.9591C38.1767 5.52786 38.3694 5.38705 38.4355 5.17966L39.6094 1.49518Z" fill="#FF8901"/>
<path d="M55.6435 1.49518C55.7914 1.0309 56.4483 1.0309 56.5963 1.49518L57.7702 5.17966C57.8363 5.38705 58.029 5.52786 58.2466 5.52786H62.0662C62.5482 5.52786 62.7511 6.14268 62.3638 6.42961L59.257 8.73141C59.0852 8.85872 59.0134 9.0812 59.0783 9.28496L60.261 12.9968C60.4083 13.4592 59.8769 13.8393 59.4869 13.5504L56.4175 11.2763C56.2407 11.1453 55.999 11.1453 55.8222 11.2763L52.7528 13.5504C52.3629 13.8393 51.8314 13.4592 51.9788 12.9968L53.1614 9.28496C53.2264 9.0812 53.1545 8.85872 52.9827 8.73141L49.8759 6.42961C49.4886 6.14268 49.6916 5.52786 50.1736 5.52786H53.9931C54.2108 5.52786 54.4034 5.38705 54.4695 5.17966L55.6435 1.49518Z" fill="#FF8901"/>
<path d="M71.6786 1.49518C71.8265 1.0309 72.4834 1.0309 72.6314 1.49518L73.8053 5.17966C73.8714 5.38705 74.0641 5.52786 74.2817 5.52786H78.1013C78.5833 5.52786 78.7862 6.14268 78.3989 6.42961L75.2921 8.73141C75.1203 8.85872 75.0485 9.0812 75.1134 9.28496L76.2961 12.9968C76.4434 13.4592 75.912 13.8393 75.522 13.5504L72.4526 11.2763C72.2758 11.1453 72.0341 11.1453 71.8573 11.2763L68.7879 13.5504C68.398 13.8393 67.8665 13.4592 68.0138 12.9968L69.1965 9.28496C69.2615 9.0812 69.1896 8.85872 69.0178 8.73141L65.911 6.42961C65.5237 6.14268 65.7267 5.52786 66.2087 5.52786H70.0282C70.2459 5.52786 70.4385 5.38705 70.5046 5.17966L71.6786 1.49518Z" fill="#FF8901"/>
</svg>
