<svg width="165" height="41" viewBox="0 0 165 41" fill="none" xmlns="http://www.w3.org/2000/svg">
<path d="M43.362 9.20408H60.013V12.3945H53.4658V30.3293H49.8656V12.3945H43.3475V9.20408H43.362ZM59.3016 15.0333H62.3792V17.9851H62.4373C62.5389 17.5677 62.7276 17.1652 63.0035 16.7776C63.2793 16.3899 63.6132 16.0172 64.0051 15.7042C64.3971 15.3762 64.8326 15.1227 65.3117 14.914C65.7907 14.7202 66.2843 14.6158 66.7779 14.6158C67.1553 14.6158 67.4312 14.6307 67.5763 14.6457C67.7215 14.6606 67.8667 14.6904 68.0264 14.7053V17.9553C67.7941 17.9106 67.5618 17.8808 67.315 17.851C67.0682 17.8211 66.836 17.8062 66.6037 17.8062C66.052 17.8062 65.5294 17.9255 65.0359 18.1491C64.5423 18.3728 64.1213 18.7157 63.7584 19.148C63.3954 19.5952 63.1051 20.132 62.8873 20.7879C62.6696 21.4439 62.568 22.1893 62.568 23.0391V30.3144H59.2871V15.0333H59.3016ZM83.1095 30.3293H79.8867V28.1974H79.8287C79.4222 28.9726 78.827 29.5839 78.0286 30.046C77.2301 30.5082 76.4172 30.7467 75.5897 30.7467C73.6299 30.7467 72.2072 30.2548 71.3362 29.2559C70.4652 28.257 70.0297 26.7513 70.0297 24.7387V15.0333H73.3105V24.4107C73.3105 25.7524 73.5573 26.7066 74.0654 27.2582C74.559 27.8098 75.2703 28.093 76.1704 28.093C76.8672 28.093 77.4334 27.9887 77.8979 27.7651C78.3624 27.5414 78.7399 27.2582 79.0157 26.8855C79.3061 26.5277 79.5093 26.0804 79.6399 25.5735C79.7706 25.0666 79.8287 24.515 79.8287 23.9187V15.0482H83.1095V30.3293ZM88.6986 25.4244C88.8002 26.4084 89.1631 27.0942 89.7873 27.4967C90.4261 27.8843 91.181 28.093 92.0665 28.093C92.3714 28.093 92.7198 28.0632 93.1117 28.0185C93.5037 27.9738 93.8811 27.8694 94.215 27.7352C94.5634 27.6011 94.8392 27.3923 95.0715 27.124C95.2893 26.8556 95.3909 26.5128 95.3764 26.0804C95.3619 25.6481 95.2022 25.2903 94.9118 25.0219C94.6215 24.7386 94.2586 24.5299 93.8085 24.351C93.3585 24.187 92.8504 24.038 92.2697 23.9187C91.6891 23.7994 91.1084 23.6652 90.5132 23.5311C89.9035 23.3969 89.3083 23.218 88.7421 23.0242C88.1759 22.8304 87.6678 22.562 87.2178 22.2191C86.7678 21.8911 86.4049 21.4588 86.1436 20.937C85.8677 20.4152 85.7371 19.7741 85.7371 18.9989C85.7371 18.164 85.9403 17.4783 86.3323 16.9117C86.7242 16.3452 87.2323 15.898 87.8275 15.5551C88.4373 15.2122 89.105 14.9736 89.8454 14.8246C90.5858 14.6904 91.2971 14.6158 91.9649 14.6158C92.7343 14.6158 93.4747 14.7053 94.1715 14.8693C94.8683 15.0333 95.507 15.3016 96.0732 15.6892C96.6394 16.062 97.1039 16.5539 97.4813 17.1503C97.8588 17.7466 98.0911 18.4771 98.1927 19.3269H94.7667C94.607 18.5218 94.2586 17.9702 93.6924 17.7019C93.1262 17.4186 92.473 17.2844 91.7471 17.2844C91.5149 17.2844 91.239 17.2994 90.9197 17.3441C90.6003 17.3888 90.3099 17.4633 90.0196 17.5677C89.7438 17.6721 89.5115 17.8361 89.3083 18.0448C89.1196 18.2535 89.0179 18.5218 89.0179 18.8647C89.0179 19.2822 89.1631 19.6102 89.4389 19.8636C89.7147 20.117 90.0777 20.3258 90.5277 20.5047C90.9777 20.6687 91.4858 20.8177 92.0665 20.937C92.6472 21.0563 93.2424 21.1904 93.8521 21.3246C94.4473 21.4588 95.028 21.6377 95.6086 21.8315C96.1893 22.0253 96.6974 22.2937 97.1474 22.6366C97.5975 22.9795 97.9604 23.3969 98.2362 23.9038C98.512 24.4107 98.6572 25.0517 98.6572 25.7971C98.6572 26.7066 98.454 27.4669 98.0475 28.108C97.641 28.7341 97.1184 29.2559 96.4797 29.6435C95.8409 30.0311 95.1151 30.3293 94.3312 30.5082C93.5472 30.6871 92.7633 30.7766 91.9939 30.7766C91.0503 30.7766 90.1793 30.6722 89.3809 30.4486C88.5824 30.2249 87.8856 29.897 87.3049 29.4646C86.7242 29.0174 86.2597 28.4658 85.9258 27.8098C85.5919 27.1538 85.4177 26.3637 85.3887 25.4543H88.6986V25.4244ZM99.5282 15.0333H102.011V10.4415H105.291V15.0333H108.253V17.5528H105.291V25.7226C105.291 26.0804 105.306 26.3786 105.335 26.6469C105.364 26.9004 105.437 27.124 105.538 27.3029C105.64 27.4818 105.8 27.616 106.017 27.7054C106.235 27.7949 106.511 27.8396 106.888 27.8396C107.121 27.8396 107.353 27.8396 107.585 27.8247C107.817 27.8098 108.05 27.78 108.282 27.7203V30.3293C107.919 30.374 107.556 30.4038 107.222 30.4486C106.874 30.4933 106.525 30.5082 106.163 30.5082C105.291 30.5082 104.595 30.4188 104.072 30.2548C103.549 30.0908 103.128 29.8373 102.838 29.5093C102.533 29.1814 102.345 28.7788 102.228 28.2869C102.127 27.7949 102.054 27.2284 102.04 26.6022V17.5826H99.5573V15.0333H99.5282ZM110.576 15.0333H113.682V17.1055H113.74C114.205 16.211 114.844 15.5849 115.671 15.1973C116.499 14.8096 117.384 14.6158 118.357 14.6158C119.533 14.6158 120.549 14.8246 121.42 15.2569C122.291 15.6743 123.017 16.2558 123.597 17.0012C124.178 17.7466 124.599 18.6113 124.889 19.5952C125.18 20.5792 125.325 21.6377 125.325 22.7558C125.325 23.7845 125.194 24.7834 124.933 25.7375C124.672 26.7066 124.28 27.5563 123.757 28.3018C123.234 29.0472 122.567 29.6286 121.754 30.0759C120.941 30.5231 119.997 30.7467 118.894 30.7467C118.415 30.7467 117.936 30.702 117.457 30.6126C116.978 30.5231 116.513 30.374 116.078 30.1802C115.642 29.9864 115.221 29.733 114.858 29.4199C114.481 29.1068 114.176 28.749 113.915 28.3465H113.857V35.9796H110.576V15.0333ZM122.044 22.6962C122.044 22.0104 121.957 21.3395 121.783 20.6836C121.609 20.0276 121.347 19.4611 120.999 18.9542C120.65 18.4473 120.215 18.0448 119.707 17.7466C119.184 17.4484 118.589 17.2844 117.921 17.2844C116.542 17.2844 115.497 17.7764 114.8 18.7604C114.103 19.7443 113.755 21.0563 113.755 22.6962C113.755 23.4714 113.842 24.187 114.031 24.843C114.219 25.499 114.481 26.0655 114.858 26.5426C115.221 27.0196 115.657 27.3923 116.165 27.6607C116.673 27.944 117.268 28.0781 117.936 28.0781C118.691 28.0781 119.315 27.9141 119.838 27.6011C120.36 27.288 120.781 26.8706 121.115 26.3786C121.449 25.8717 121.696 25.3052 121.841 24.6641C121.972 24.023 122.044 23.3671 122.044 22.6962ZM127.836 9.20408H131.117V12.3945H127.836V9.20408ZM127.836 15.0333H131.117V30.3293H127.836V15.0333ZM134.05 9.20408H137.331V30.3293H134.05V9.20408ZM147.391 30.7467C146.2 30.7467 145.141 30.538 144.212 30.1355C143.282 29.733 142.499 29.1665 141.845 28.4658C141.207 27.7502 140.713 26.9004 140.379 25.9164C140.045 24.9325 139.871 23.8441 139.871 22.6664C139.871 21.5035 140.045 20.4301 140.379 19.4462C140.713 18.4622 141.207 17.6124 141.845 16.8968C142.484 16.1812 143.282 15.6296 144.212 15.2271C145.141 14.8246 146.2 14.6158 147.391 14.6158C148.581 14.6158 149.641 14.8246 150.57 15.2271C151.499 15.6296 152.283 16.1961 152.936 16.8968C153.575 17.6124 154.069 18.4622 154.402 19.4462C154.736 20.4301 154.911 21.5035 154.911 22.6664C154.911 23.8441 154.736 24.9325 154.402 25.9164C154.069 26.9004 153.575 27.7502 152.936 28.4658C152.298 29.1814 151.499 29.733 150.57 30.1355C149.641 30.538 148.581 30.7467 147.391 30.7467ZM147.391 28.0781C148.117 28.0781 148.755 27.9141 149.293 27.6011C149.83 27.288 150.265 26.8706 150.614 26.3637C150.962 25.8568 151.209 25.2754 151.383 24.6343C151.543 23.9932 151.63 23.3373 151.63 22.6664C151.63 22.0104 151.543 21.3693 151.383 20.7134C151.223 20.0574 150.962 19.4909 150.614 18.984C150.265 18.4771 149.83 18.0746 149.293 17.7615C148.755 17.4484 148.117 17.2844 147.391 17.2844C146.665 17.2844 146.026 17.4484 145.489 17.7615C144.952 18.0746 144.516 18.492 144.168 18.984C143.82 19.4909 143.573 20.0574 143.399 20.7134C143.239 21.3693 143.152 22.0104 143.152 22.6664C143.152 23.3373 143.239 23.9932 143.399 24.6343C143.558 25.2754 143.82 25.8568 144.168 26.3637C144.516 26.8706 144.952 27.288 145.489 27.6011C146.026 27.9291 146.665 28.0781 147.391 28.0781ZM155.869 15.0333H158.351V10.4415H161.632V15.0333H164.593V17.5528H161.632V25.7226C161.632 26.0804 161.646 26.3786 161.675 26.6469C161.705 26.9004 161.777 27.124 161.879 27.3029C161.98 27.4818 162.14 27.616 162.358 27.7054C162.576 27.7949 162.851 27.8396 163.229 27.8396C163.461 27.8396 163.693 27.8396 163.926 27.8247C164.158 27.8098 164.39 27.78 164.622 27.7203V30.3293C164.26 30.374 163.897 30.4038 163.563 30.4486C163.214 30.4933 162.866 30.5082 162.503 30.5082C161.632 30.5082 160.935 30.4188 160.413 30.2548C159.89 30.0908 159.469 29.8373 159.179 29.5093C158.874 29.1814 158.685 28.7788 158.569 28.2869C158.467 27.7949 158.395 27.2284 158.38 26.6022V17.5826H155.898V15.0333H155.869Z" fill="#191919"/>
<path d="M39.5167 14.5313H24.4266L19.7656 0L15.09 14.5313L0 14.5165L12.2206 23.5065L7.54502 38.023L19.7656 29.0478L31.9717 38.023L27.3106 23.5065L39.5167 14.5313Z" fill="#00B67A"/>
<path d="M28.3594 26.793L27.3106 23.5065L19.7656 29.0478L28.3594 26.793Z" fill="#005128"/>
</svg>
